/* XPM */
static char *think[] = {
/* columns rows colors chars-per-pixel */
"128 128 2 1",
"  c #FFFFFF",
". c None",
/* pixels */
"................................................................................................................................",
"................................................................................................................................",
"................................................................................................................................",
"................................................................................................................................",
"................................................................................................................................",
"................................................................................................................................",
"................................................................................................................................",
"................................................................................................................................",
"................................................................................................................................",
"................................................................................................................................",
"................................................................................................................................",
".......                                                                                                                .........",
".....                                                                                                                    .......",
"...                                                                                                                       ......",
"...                                                                                                                        .....",
"..                                                                                                                          ....",
".                                                                                                                           ....",
".                                                                                                                            ...",
"                                                                                                                             ...",
"                                                                                                                             ...",
"                                                                                                                             ...",
"                                                                                                                             ...",
"                                                                                                                             ...",
"                                                                                                                             ...",
"                                                                                                                             ...",
"                                                                                                                             ...",
"                                                                                                                             ...",
"                                                                                                                             ...",
"                                                                                                                             ...",
"                                                                                                                             ...",
"                                                                                                                             ...",
"                                                                                                                             ...",
"                                                                                                                             ...",
"                                                                                                                             ...",
"                                                                                                                             ...",
"                                                                                                                             ...",
"                                                                                                                             ...",
"                                                                                                                             ...",
"                                                                                                                             ...",
"                                                                                                                             ...",
"                                                                                                                             ...",
"                                                                                                                             ...",
"                                                                                                                             ...",
"                                                                                                                             ...",
"                                                                                                                             ...",
"                                                                                                                             ...",
"                                                                                                                             ...",
"                                                                                                                             ...",
"                                                                                                                             ...",
"                                                                                                                             ...",
"                                                                                                                             ...",
"                                    ......                  ......                  ......                                   ...",
"                                  .........               .........               .........                                  ...",
"                                 ...........             ...........             ...........                                 ...",
"                                 ............            ............            ............                                ...",
"                                .............           .............           .............                                ...",
"                                .............           .............           .............                                ...",
"                                .............           .............           .............                                ...",
"                                .............           .............           .............                                ...",
"                                .............           .............           .............                                ...",
"                                 ...........             ...........             ...........                                 ...",
"                                  ..........              ..........              ..........                                 ...",
"                                  .........               .........               .........                                  ...",
"                                    .....                   .....                   .....                                    ...",
"                                                                                                                             ...",
"                                                                                                                             ...",
"                                                                                                                             ...",
"                                                                                                                             ...",
"                                                                                                                             ...",
"                                                                                                                             ...",
"                                                                                                                             ...",
"                                                                                                                             ...",
"                                                                                                                             ...",
"                                                                                                                             ...",
"                                                                                                                             ...",
"                                                                                                                             ...",
"                                                                                                                             ...",
"                                                                                                                             ...",
"                                                                                                                             ...",
"                                                                                                                             ...",
"                                                                                                                             ...",
"                                                                                                                             ...",
"                                                                                                                             ...",
"                                                                                                                             ...",
"                                                                                                                             ...",
"                                                                                                                             ...",
"                                                                                                                             ...",
"                                                                                                                             ...",
"                                                                                                                             ...",
"                                                                                                                             ...",
"                                                                                                                             ...",
".                                                                                                                            ...",
".                                                                                                                           ....",
"..                                                                                                                          ....",
"..                                                                                                                         .....",
"...                                                                                                                       ......",
"....                                                                                                                     .......",
"......                                                                                                                  ........",
".........                                                                                                            ...........",
"...........................                            .........................................................................",
"...........................                           ..........................................................................",
"...........................                          ...........................................................................",
"...........................                         ............................................................................",
"...........................                        .............................................................................",
"...........................                       ..............................................................................",
"...........................                      ...............................................................................",
"...........................                     ................................................................................",
"...........................                    .................................................................................",
"...........................                   ..................................................................................",
"...........................                  ...................................................................................",
"...........................                 ....................................................................................",
"...........................                .....................................................................................",
"...........................               ......................................................................................",
"...........................              .......................................................................................",
"...........................             ........................................................................................",
"...........................            .........................................................................................",
"...........................           ..........................................................................................",
"...........................          ...........................................................................................",
"............................        ............................................................................................",
".............................      .............................................................................................",
"................................................................................................................................",
"................................................................................................................................",
"................................................................................................................................",
"................................................................................................................................",
"................................................................................................................................",
"................................................................................................................................",
"................................................................................................................................",
"................................................................................................................................"
};
